<?xml version="1.0" encoding="UTF-8"?>
<svg width="63px" height="63px" viewBox="0 0 63 63" version="1.1" xmlns="http://www.w3.org/2000/svg" xmlns:xlink="http://www.w3.org/1999/xlink">
    <!-- Generator: Sketch 62 (91390) - https://sketch.com -->
    <title>9090260D-C7A7-4FCA-A9E9-A072B3310266</title>
    <desc>Created with Sketch.</desc>
    <defs>
        <circle id="path-1" cx="31.5" cy="31.5" r="31.5"></circle>
    </defs>
    <g id="控件" stroke="none" stroke-width="1" fill="none" fill-rule="evenodd">
        <g id="uesr_female">
            <g>
                <mask id="mask-2" fill="white">
                    <use xlink:href="#path-1"></use>
                </mask>
                <use id="椭圆形" fill="#666666" xlink:href="#path-1"></use>
                <g id="f" mask="url(#mask-2)">
                    <g transform="translate(8.000000, 10.000000)"></g>
                </g>
                <path d="M32,10 C20.8454545,10 20,19.7346939 20,19.7346939 L20,27.3061224 C17.6065455,28.4753673 19.4545455,32.1734694 19.4545455,32.1734694 C19.0389091,35.3102041 15.0909091,38.6632653 15.0909091,38.6632653 C16.4,40.4165918 26.5454545,41.9081633 26.5454545,41.9081633 C26.3130909,44.0589898 27.8949091,44.6955306 18.3636364,47.3163265 C8.83236364,49.9371224 8,52.7244898 8,52.7244898 C8,52.7244898 12.8365455,63 32.5454545,63 C52.2543636,63 56,52.7244898 56,52.7244898 C56,52.7244898 55.1676364,49.9371224 45.6363636,47.3163265 C36.1050909,44.6955306 37.6869091,44.0589898 37.4545455,41.9081633 C37.4545455,41.9081633 47.6,40.4165918 48.9090909,38.6632653 C48.9090909,38.6632653 44.9610909,35.3102041 44.5454545,32.1734694 C44.5454545,32.1734694 46.3934545,28.4753673 44,27.3061224 L44,19.7346939 C44,19.7346939 43.1545455,10 32,10" id="形状_682_拷贝" fill="#A6A6A6" mask="url(#mask-2)"></path>
            </g>
        </g>
    </g>
</svg>