<?xml version="1.0" encoding="UTF-8"?>
<svg width="50px" height="50px" viewBox="0 0 50 50" version="1.1" xmlns="http://www.w3.org/2000/svg" xmlns:xlink="http://www.w3.org/1999/xlink">
    <!-- Generator: Sketch 62 (91390) - https://sketch.com -->
    <title>C6FD42C9-C7AB-405E-AD5B-93FCB8C5F232</title>
    <desc>Created with Sketch.</desc>
    <g id="Music-Home" stroke="none" stroke-width="1" fill="none" fill-rule="evenodd">
        <g id="Music_home" transform="translate(-1090.000000, -1542.000000)" fill-rule="nonzero">
            <g id="Twitter_Social_Icon_Circle_Color" transform="translate(1090.000000, 1542.000000)">
                <g id="Dark_Blue" fill="#1DA1F2">
                    <circle id="椭圆形" cx="25" cy="25" r="25"></circle>
                </g>
                <g id="Logo__x2014__FIXED" transform="translate(11.125000, 14.250000)" fill="#FFFFFF">
                    <path d="M9.3,23.9375 C20.3875,23.9375 26.45,14.75 26.45,6.7875 C26.45,6.525 26.45,6.2625 26.4375,6.0125 C27.6125,5.1625 28.6375,4.1 29.45,2.8875 C28.375,3.3625 27.2125,3.6875 25.9875,3.8375 C27.2375,3.0875 28.1875,1.9125 28.6375,0.5 C27.475,1.1875 26.1875,1.6875 24.8125,1.9625 C23.7125,0.7875 22.15,0.0625 20.4125,0.0625 C17.0875,0.0625 14.3875,2.7625 14.3875,6.0875 C14.3875,6.5625 14.4375,7.025 14.55,7.4625 C9.5375,7.2125 5.1,4.8125 2.125,1.1625 C1.6125,2.05 1.3125,3.0875 1.3125,4.1875 C1.3125,6.275 2.375,8.125 4,9.2 C3.0125,9.175 2.0875,8.9 1.275,8.45 C1.275,8.475 1.275,8.5 1.275,8.525 C1.275,11.45 3.35,13.875 6.1125,14.4375 C5.6125,14.575 5.075,14.65 4.525,14.65 C4.1375,14.65 3.7625,14.6125 3.3875,14.5375 C4.15,16.9375 6.375,18.675 9.0125,18.725 C6.95,20.3375 4.35,21.3 1.525,21.3 C1.0375,21.3 0.5625,21.275 0.0875,21.2125 C2.725,22.9375 5.9,23.9375 9.3,23.9375" id="路径"></path>
                </g>
            </g>
        </g>
    </g>
</svg>